<svg width="30" height="30" viewBox="0 0 30 30" fill="none" xmlns="http://www.w3.org/2000/svg">
<path d="M15.1438 4.68748C9.344 4.60915 4.60918 9.34397 4.68751 15.1438C4.76486 20.7061 9.29393 25.2351 14.8562 25.3125C20.657 25.3918 25.3908 20.657 25.3115 14.8572C25.2352 9.2939 20.7061 4.76483 15.1438 4.68748ZM21.4116 20.9123C21.3919 20.9337 21.3677 20.9504 21.3407 20.9614C21.3138 20.9723 21.2847 20.9772 21.2557 20.9757C21.2266 20.9742 21.1983 20.9663 21.1726 20.9526C21.1469 20.9389 21.1246 20.9197 21.1072 20.8965C20.6637 20.3162 20.1206 19.8195 19.5033 19.4294C18.241 18.6193 16.6416 18.1731 15 18.1731C13.3584 18.1731 11.759 18.6193 10.4967 19.4294C9.8794 19.8193 9.33631 20.3159 8.89283 20.896C8.87541 20.9193 8.85307 20.9384 8.82741 20.9521C8.80175 20.9658 8.77339 20.9737 8.74434 20.9752C8.71529 20.9767 8.68626 20.9718 8.65932 20.9609C8.63237 20.9499 8.60816 20.9332 8.58841 20.9118C7.13359 19.3413 6.3095 17.2892 6.27405 15.1487C6.19324 10.3242 10.1521 6.28592 14.9787 6.27402C19.8052 6.26212 23.726 10.1814 23.726 15C23.7276 17.1921 22.901 19.3039 21.4116 20.9123Z" fill="#358A2E"/>
<path d="M15 9.44711C14.0223 9.44711 13.1383 9.8135 12.5101 10.4794C11.882 11.1452 11.5681 12.0659 11.639 13.054C11.7828 15 13.2905 16.5865 15 16.5865C16.7095 16.5865 18.2142 15 18.361 13.0545C18.4344 12.0758 18.123 11.1635 17.4844 10.4853C16.8538 9.81598 15.9713 9.44711 15 9.44711Z" fill="#358A2E"/>
</svg>
