<svg width="26" height="26" viewBox="0 0 26 26" fill="none" xmlns="http://www.w3.org/2000/svg">
<path d="M22.75 13C22.75 18.3828 18.3828 22.75 13 22.75C7.61719 22.75 3.25 18.3828 3.25 13C3.25 7.61719 7.61719 3.25 13 3.25C18.3828 3.25 22.75 7.61719 22.75 13Z" stroke="#2B3176" stroke-width="1.625" stroke-miterlimit="10"/>
<path d="M10.985 9.01671L16.7969 12.5277C16.8779 12.5771 16.9449 12.6464 16.9913 12.7292C17.0378 12.8119 17.0622 12.9051 17.0622 13C17.0622 13.0949 17.0378 13.1881 16.9913 13.2708C16.9449 13.3535 16.8779 13.4229 16.7969 13.4723L10.985 16.9833C10.9017 17.0332 10.8066 17.06 10.7095 17.0611C10.6124 17.0621 10.5168 17.0373 10.4324 16.9892C10.3481 16.941 10.278 16.8714 10.2295 16.7872C10.181 16.7031 10.1557 16.6076 10.1563 16.5105V9.48948C10.1557 9.39237 10.181 9.29686 10.2295 9.21274C10.278 9.12862 10.3481 9.05893 10.4324 9.01081C10.5168 8.96269 10.6124 8.93788 10.7095 8.93891C10.8066 8.93995 10.9017 8.9668 10.985 9.01671Z" fill="#2B3176"/>
</svg>
